<?xml version="1.0" encoding="UTF-8"?>
<svg id="Layer_2" xmlns="http://www.w3.org/2000/svg" viewBox="0 0 193.93 68.13">
  <defs>
    <style>
      .cls-1 {
        fill: #ff3d11;
      }

      .cls-2 {
        fill: #0c342c;
      }

      .cls-3 {
        fill: #fef9f5;
      }

      .cls-4 {
        fill: #affa01;
      }
    </style>
  </defs>
  <g id="Layer_1-2" data-name="Layer_1">
    <g>
      <path class="cls-2" d="M79.93,42.28c.45-.81,1.06-1.44,1.83-1.89s1.64-.68,2.59-.68c1.16,0,2.16.28,2.99.83.83.55,1.43,1.33,1.81,2.33h-1.22c-.3-.71-.75-1.26-1.36-1.66-.61-.4-1.35-.6-2.21-.6-.77,0-1.45.18-2.06.54s-1.09.87-1.44,1.54c-.35.67-.52,1.45-.52,2.33s.17,1.66.52,2.33c.35.67.83,1.18,1.44,1.54s1.3.54,2.06.54c.86,0,1.6-.2,2.21-.59.61-.39,1.07-.94,1.36-1.63h1.22c-.38.99-.98,1.76-1.82,2.31-.83.55-1.83.82-2.98.82-.95,0-1.82-.23-2.59-.68s-1.39-1.08-1.83-1.89c-.45-.8-.67-1.72-.67-2.74s.22-1.94.67-2.75ZM92.65,49.85c-.61-.34-1.09-.83-1.45-1.46-.35-.63-.53-1.37-.53-2.21s.18-1.58.54-2.21c.36-.63.84-1.12,1.46-1.46.62-.34,1.31-.51,2.07-.51s1.46.17,2.08.51c.62.34,1.11.83,1.46,1.46.35.63.53,1.37.53,2.21s-.18,1.57-.54,2.21-.85,1.13-1.48,1.47-1.32.51-2.09.51-1.45-.17-2.06-.51ZM96.21,49.09c.46-.24.83-.61,1.11-1.1.28-.49.43-1.1.43-1.81s-.14-1.32-.42-1.81c-.28-.49-.65-.86-1.1-1.1-.46-.24-.95-.37-1.49-.37s-1.03.12-1.49.37c-.46.24-.82.61-1.1,1.1s-.41,1.1-.41,1.81.14,1.32.41,1.81c.27.49.64.86,1.09,1.1.45.24.95.37,1.48.37s1.03-.12,1.49-.37ZM101.7,39.21v11.03h-1.04v-11.03h1.04ZM105.04,39.21v11.03h-1.04v-11.03h1.04ZM114.67,46.58h-6.75c.03.62.18,1.14.45,1.58.27.44.62.77,1.06.99.44.22.91.34,1.43.34.68,0,1.24-.16,1.71-.49.46-.33.77-.77.92-1.33h1.1c-.2.8-.62,1.44-1.27,1.95-.65.5-1.47.75-2.45.75-.77,0-1.45-.17-2.06-.51-.61-.34-1.08-.83-1.42-1.46-.34-.63-.51-1.37-.51-2.21s.17-1.59.51-2.22c.34-.64.81-1.12,1.42-1.46.61-.34,1.3-.51,2.07-.51s1.45.17,2.04.51c.58.34,1.03.79,1.34,1.36.31.57.47,1.21.47,1.9,0,.36,0,.63-.03.82ZM113.27,44.18c-.25-.43-.6-.75-1.04-.97-.44-.22-.91-.33-1.43-.33-.77,0-1.44.25-1.98.75-.55.5-.85,1.2-.91,2.1h5.73c0-.61-.11-1.12-.37-1.55ZM116.56,43.96c.34-.63.8-1.12,1.4-1.46.6-.34,1.28-.51,2.04-.51,1,0,1.83.25,2.48.75s1.07,1.17,1.26,2.03h-1.12c-.14-.59-.44-1.05-.9-1.38-.46-.33-1.04-.5-1.72-.5-.55,0-1.04.12-1.48.37-.44.25-.78.62-1.04,1.11s-.38,1.1-.38,1.81.13,1.32.38,1.82.6.87,1.04,1.12c.44.25.93.37,1.48.37.69,0,1.26-.17,1.72-.5.46-.33.76-.8.9-1.39h1.12c-.19.83-.61,1.51-1.27,2.01-.66.51-1.48.76-2.48.76-.77,0-1.45-.17-2.04-.51-.6-.34-1.06-.83-1.4-1.46-.34-.63-.51-1.37-.51-2.21s.17-1.58.51-2.21ZM126.95,42.99v5.05c0,.5.09.84.28,1.03.19.19.52.28,1,.28h.95v.89h-1.12c-.74,0-1.28-.17-1.64-.51-.36-.34-.54-.91-.54-1.69v-5.05h-1.13v-.88h1.13v-2.04h1.06v2.04h2.24v.88h-2.24ZM130.81,40.35c-.15-.15-.22-.33-.22-.55s.07-.4.22-.54c.15-.14.33-.22.54-.22s.39.07.54.22c.15.14.22.33.22.54s-.07.4-.22.55c-.15.15-.33.22-.54.22s-.39-.08-.54-.22ZM131.87,42.11v8.14h-1.04v-8.14h1.04ZM135.66,49.85c-.61-.34-1.09-.83-1.45-1.46-.35-.63-.53-1.37-.53-2.21s.18-1.58.54-2.21c.36-.63.84-1.12,1.46-1.46.62-.34,1.31-.51,2.07-.51s1.46.17,2.08.51c.62.34,1.11.83,1.46,1.46.35.63.53,1.37.53,2.21s-.18,1.57-.54,2.21-.85,1.13-1.48,1.47-1.32.51-2.09.51-1.45-.17-2.06-.51ZM139.22,49.09c.46-.24.83-.61,1.11-1.1.28-.49.43-1.1.43-1.81s-.14-1.32-.42-1.81c-.28-.49-.65-.86-1.1-1.1-.46-.24-.95-.37-1.49-.37s-1.03.12-1.49.37c-.46.24-.82.61-1.1,1.1s-.41,1.1-.41,1.81.14,1.32.41,1.81c.27.49.64.86,1.09,1.1.45.24.95.37,1.48.37s1.03-.12,1.49-.37ZM149.86,42.86c.62.6.92,1.47.92,2.62v4.77h-1.03v-4.65c0-.88-.22-1.56-.66-2.03-.44-.47-1.05-.7-1.81-.7s-1.41.25-1.88.75c-.47.5-.7,1.23-.7,2.19v4.44h-1.04v-8.14h1.04v1.39c.26-.5.63-.88,1.12-1.14.49-.26,1.04-.4,1.65-.4.97,0,1.77.3,2.39.9ZM163.07,47.77h-4.74l-.91,2.47h-1.1l3.8-10.29h1.18l3.79,10.29h-1.1l-.91-2.47ZM162.76,46.91l-2.06-5.64-2.06,5.64h4.11ZM168.94,42.53c.56-.36,1.23-.54,2.01-.54.74,0,1.4.17,1.99.51.59.34,1.05.83,1.39,1.46.33.63.5,1.36.5,2.2s-.17,1.57-.5,2.21-.8,1.13-1.39,1.48c-.59.35-1.25.52-1.99.52s-1.43-.18-2-.54c-.57-.36-.98-.82-1.24-1.36v5.64h-1.03v-11.99h1.03v1.79c.26-.55.67-1,1.23-1.36ZM173.37,44.41c-.26-.49-.62-.87-1.08-1.13-.46-.26-.97-.39-1.55-.39s-1.07.13-1.53.4c-.46.27-.83.65-1.1,1.15-.27.5-.4,1.07-.4,1.73s.13,1.23.4,1.73c.27.5.63.88,1.1,1.15.46.27.97.4,1.53.4s1.09-.13,1.55-.39c.46-.26.82-.65,1.08-1.15s.4-1.09.4-1.75-.13-1.26-.4-1.75ZM178.93,42.53c.56-.36,1.23-.54,2.01-.54.74,0,1.4.17,1.99.51.59.34,1.05.83,1.39,1.46.33.63.5,1.36.5,2.2s-.17,1.57-.5,2.21-.8,1.13-1.39,1.48c-.59.35-1.25.52-1.99.52s-1.43-.18-2-.54c-.57-.36-.98-.82-1.24-1.36v5.64h-1.03v-11.99h1.03v1.79c.26-.55.67-1,1.23-1.36ZM183.35,44.41c-.26-.49-.62-.87-1.08-1.13-.46-.26-.97-.39-1.55-.39s-1.07.13-1.53.4c-.46.27-.83.65-1.1,1.15-.27.5-.4,1.07-.4,1.73s.13,1.23.4,1.73c.27.5.63.88,1.1,1.15.46.27.97.4,1.53.4s1.09-.13,1.55-.39c.46-.26.82-.65,1.08-1.15s.4-1.09.4-1.75-.13-1.26-.4-1.75Z"/>
      <path class="cls-1" d="M89.55,25.28h-6.51l-1.12,3.17h-2.66l5.57-15.56h2.95l5.57,15.56h-2.68l-1.12-3.17ZM88.83,23.2l-2.53-7.22-2.55,7.22h5.08ZM95.57,18.95c.51-.95,1.21-1.7,2.1-2.22.89-.53,1.87-.79,2.96-.79.8,0,1.6.17,2.38.53s1.41.82,1.87,1.4v-5.95h2.57v16.55h-2.57v-1.86c-.42.6-1,1.09-1.73,1.48s-1.58.58-2.54.58c-1.07,0-2.05-.27-2.94-.82-.89-.54-1.59-1.3-2.1-2.28-.51-.98-.77-2.08-.77-3.32s.26-2.33.77-3.29ZM104.36,20.06c-.35-.63-.81-1.1-1.38-1.43s-1.18-.49-1.83-.49-1.27.16-1.83.48c-.57.32-1.03.79-1.38,1.41-.35.62-.53,1.35-.53,2.2s.17,1.6.53,2.24c.35.64.81,1.13,1.39,1.46.57.34,1.18.5,1.82.5s1.27-.16,1.83-.49,1.02-.81,1.38-1.44c.35-.63.53-1.38.53-2.23s-.18-1.59-.53-2.21ZM115.46,26.17l3.49-10.04h2.71l-4.7,12.32h-3.04l-4.67-12.32h2.73l3.49,10.04ZM134.67,23.24h-9.41c.07.98.44,1.77,1.1,2.37.66.6,1.46.89,2.42.89,1.37,0,2.34-.57,2.91-1.72h2.75c-.37,1.13-1.05,2.06-2.02,2.78-.98.72-2.19,1.08-3.63,1.08-1.18,0-2.23-.26-3.16-.79-.93-.53-1.66-1.27-2.19-2.24-.53-.96-.79-2.08-.79-3.34s.26-2.38.77-3.34c.51-.96,1.24-1.7,2.17-2.23.93-.52,2-.78,3.21-.78s2.2.25,3.11.76c.91.51,1.62,1.22,2.12,2.14.51.92.76,1.97.76,3.16,0,.46-.03.88-.09,1.25ZM132.1,21.18c-.02-.94-.35-1.69-1.01-2.26-.66-.57-1.47-.85-2.44-.85-.88,0-1.63.28-2.26.84-.63.56-1,1.32-1.12,2.27h6.82ZM145.98,16.53c.77.4,1.37,1,1.8,1.79.43.79.65,1.74.65,2.86v7.27h-2.53v-6.89c0-1.1-.28-1.95-.83-2.54-.55-.59-1.3-.88-2.26-.88s-1.71.29-2.27.88c-.56.59-.84,1.44-.84,2.54v6.89h-2.55v-12.32h2.55v1.41c.42-.51.95-.9,1.6-1.19s1.34-.42,2.07-.42c.97,0,1.84.2,2.6.6ZM154.53,18.21v6.82c0,.46.11.79.32,1,.22.2.58.3,1.11.3h1.57v2.12h-2.01c-1.15,0-2.03-.27-2.64-.8-.61-.54-.92-1.41-.92-2.62v-6.82h-1.45v-2.08h1.45v-3.06h2.57v3.06h3v2.08h-3ZM170.92,16.13v12.32h-2.55v-1.45c-.4.51-.93.91-1.58,1.2s-1.34.44-2.07.44c-.97,0-1.84-.2-2.61-.6-.77-.4-1.37-1-1.81-1.79-.44-.79-.66-1.74-.66-2.86v-7.25h2.53v6.87c0,1.1.28,1.95.83,2.54.55.59,1.3.88,2.26.88s1.71-.29,2.27-.88c.56-.59.84-1.43.84-2.54v-6.87h2.55ZM178.2,16.45c.62-.35,1.35-.53,2.2-.53v2.64h-.65c-1,0-1.76.25-2.27.76-.51.51-.77,1.39-.77,2.64v6.48h-2.55v-12.32h2.55v1.79c.37-.63.87-1.11,1.49-1.46ZM193.84,23.24h-9.41c.07.98.44,1.77,1.1,2.37.66.6,1.46.89,2.42.89,1.37,0,2.34-.57,2.91-1.72h2.75c-.37,1.13-1.05,2.06-2.02,2.78-.98.72-2.19,1.08-3.63,1.08-1.18,0-2.23-.26-3.16-.79-.93-.53-1.66-1.27-2.19-2.24-.53-.96-.79-2.08-.79-3.34s.26-2.38.77-3.34c.51-.96,1.24-1.7,2.17-2.23.93-.52,2-.78,3.21-.78s2.2.25,3.11.76c.91.51,1.62,1.22,2.12,2.14.51.92.76,1.97.76,3.16,0,.46-.03.88-.09,1.25ZM191.27,21.18c-.02-.94-.35-1.69-1.01-2.26-.66-.57-1.47-.85-2.44-.85-.88,0-1.63.28-2.26.84-.63.56-1,1.32-1.12,2.27h6.82Z"/>
      <g>
        <rect class="cls-2" width="68.13" height="68.13" rx="22.23" ry="22.23"/>
        <polygon class="cls-4" points="54.95 44.2 45.96 44.2 33.32 30.19 38.49 23.79 39.2 24.68 46.13 33.26 54.95 44.2"/>
        <polygon class="cls-4" points="41.64 44.16 15.8 44.16 28.72 29.85 30.71 32.06 32.33 33.86 41.64 44.16"/>
        <circle class="cls-3" cx="47.83" cy="25.38" r="4.47"/>
      </g>
    </g>
  </g>
</svg>